{
  "accessors": [
    {
      "bufferView": 1,
      "componentType": 5126,
      "count": 22402,
      "max": [
        0.56387001276016235,
        0.56387001276016235,
        0.72377002239227295
      ],
      "min": [
        -0.56387001276016235,
        -0.56387001276016235,
        -0.67984002828598022
      ],
      "type": "VEC3"
    },
    {
      "bufferView": 1,
      "byteOffset": 268824,
      "componentType": 5126,
      "count": 22402,
      "max": [
        0.99999183416366577,
        0.99999326467514038,
        1
      ],
      "min": [
        -0.99999183416366577,
        -0.99999171495437622,
        -0.99999982118606567
      ],
      "type": "VEC3"
    },
    {
      "bufferView": 0,
      "componentType": 5125,
      "count": 134400,
      "max": [
        22401
      ],
      "min": [
        0
      ],
      "type": "SCALAR"
    }
  ],
  "asset": {
    "extras": {
      "author": "JuanG3D (https://sketchfab.com/juang3d)",
      "license": "CC-BY-4.0 (http://creativecommons.org/licenses/by/4.0/)",
      "source": "https://sketchfab.com/models/d090504b2d994d7c812c14bc963afe90",
      "title": "Day#31: Spinning top"
    },
    "generator": "Sketchfab-3.18.7",
    "version": "2.0"
  },
  "bufferViews": [
    {
      "buffer": 0,
      "byteLength": 537600,
      "byteOffset": 0,
      "name": "floatBufferViews",
      "target": 34963
    },
    {
      "buffer": 0,
      "byteLength": 537648,
      "byteOffset": 537600,
      "byteStride": 12,
      "name": "floatBufferViews",
      "target": 34962
    }
  ],
  "buffers": [
    {
      "byteLength": 1075248,
      "uri": "scene.bin"
    }
  ],
  "materials": [
    {
      "doubleSided": true,
      "emissiveFactor": [
        0,
        0,
        0
      ],
      "name": "Scene_-_Root",
      "pbrMetallicRoughness": {
        "baseColorFactor": [
          1,
          1,
          1,
          1
        ],
        "metallicFactor": 1,
        "roughnessFactor": 0.15901471980000001
      }
    }
  ],
  "meshes": [
    {
      "name": "Foreverspin_0",
      "primitives": [
        {
          "attributes": {
            "NORMAL": 1,
            "POSITION": 0
          },
          "indices": 2,
          "material": 0,
          "mode": 4
        }
      ]
    }
  ],
  "nodes": [
    {
      "children": [
        1
      ],
      "name": "RootNode (gltf orientation matrix)",
      "rotation": [
        -0.70710678118654746,
        -0,
        -0,
        0.70710678118654757
      ]
    },
    {
      "children": [
        2
      ],
      "name": "RootNode (model correction matrix)"
    },
    {
      "children": [
        3
      ],
      "name": "Root"
    },
    {
      "children": [
        4
      ],
      "matrix": [
        25.399999999999999,
        0,
        0,
        0,
        0,
        25.399999999999999,
        0,
        0,
        0,
        0,
        25.399999999999999,
        0,
        0,
        0,
        0,
        1
      ],
      "name": "Foreverspin"
    },
    {
      "mesh": 0,
      "name": "Foreverspin_0"
    }
  ],
  "scene": 0,
  "scenes": [
    {
      "name": "OSG_Scene",
      "nodes": [
        0
      ]
    }
  ]
}

